<?xml version="1.0" encoding="UTF-8" standalone="no"?>
<!-- Generator: Adobe Illustrator 18.1.1, SVG Export Plug-In . SVG Version: 6.00 Build 0)  -->

<svg
   xmlns:dc="http://purl.org/dc/elements/1.1/"
   xmlns:cc="http://creativecommons.org/ns#"
   xmlns:rdf="http://www.w3.org/1999/02/22-rdf-syntax-ns#"
   xmlns:svg="http://www.w3.org/2000/svg"
   xmlns="http://www.w3.org/2000/svg"
   xmlns:sodipodi="http://sodipodi.sourceforge.net/DTD/sodipodi-0.dtd"
   xmlns:inkscape="http://www.inkscape.org/namespaces/inkscape"
   version="1.1"
   id="Layer_1"
   x="0px"
   y="0px"
   viewBox="-36.6 27.5 586 297"
   enable-background="new -36.6 27.5 586 297"
   xml:space="preserve"
   inkscape:version="0.91 r"
   sodipodi:docname="home-hero-illustration.svg"><metadata
     id="metadata399"><rdf:RDF><cc:Work
         rdf:about=""><dc:format>image/svg+xml</dc:format><dc:type
           rdf:resource="http://purl.org/dc/dcmitype/StillImage" /></cc:Work></rdf:RDF></metadata><defs
     id="defs397"><filter
       inkscape:collect="always"
       style="color-interpolation-filters:sRGB"
       id="filter4760"
       x="-0.022289695"
       width="1.0445794"
       y="-0.6980727"
       height="2.3961454"><feGaussianBlur
         inkscape:collect="always"
         stdDeviation="5.5059775"
         id="feGaussianBlur4762" /></filter></defs><sodipodi:namedview
     pagecolor="#ffffff"
     bordercolor="#666666"
     borderopacity="1"
     objecttolerance="10"
     gridtolerance="10"
     guidetolerance="10"
     inkscape:pageopacity="0"
     inkscape:pageshadow="2"
     inkscape:window-width="1222"
     inkscape:window-height="646"
     id="namedview395"
     showgrid="false"
     inkscape:zoom="1.1621914"
     inkscape:cx="303.71223"
     inkscape:cy="274.86074"
     inkscape:window-x="0"
     inkscape:window-y="0"
     inkscape:window-maximized="0"
     inkscape:current-layer="Layer_1" /><rect
     style="fill:#ffffff"
     id="rect5"
     height="293.10001"
     width="584.09998"
     y="31.4"
     x="-36.299999" /><ellipse
     style="fill:#ffffff"
     id="ellipse7"
     ry="18"
     rx="21.700001"
     cy="211.10001"
     cx="427.20001" /><path
     style="fill:#c3e9f6"
     inkscape:connector-curvature="0"
     id="path9"
     d="m 549.4,27.5 -586,0 0,238.8 0.5,14.2 c 35,23.1 80.8,26.8 121.9,16.8 8.9,-2.2 17.7,-5.2 26.7,-6 18.6,-1.7 36.6,5.6 54.9,9.3 24.1,4.8 49.5,3.3 72.8,-4.5 10.1,-3.5 19.9,-8 30.5,-10.1 31.2,-6.3 63.1,9.7 94.8,7.2 10.9,-0.9 21.4,-3.8 32.2,-5.9 19.6,-3.7 40.1,-4.3 60,-1.7 15,2 29.8,5.8 45,6.4 15.2,0.5 33.8,-2.8 44.6,-12.9 l 2.1,-6.6 0,-245 0,0 z" /><path
     style="fill:#3a82b4"
     inkscape:connector-curvature="0"
     id="path11"
     d="m 432.7,264.2 -8.6,18 c -0.3,0.5 0.2,1.2 0.8,1.2 l 41.4,-0.4 c 0.4,0 0.9,0.4 0.8,0.9 l -0.1,5.2 c 0,0.4 0.3,0.7 0.6,0.8 l 6.9,1.7 c 0.5,0.1 1.1,-0.3 1,-0.8 l -0.2,-7.8 c 0,-0.4 0.4,-0.9 0.8,-0.9 l 41.4,0 c 0.6,0 1.1,-0.7 0.7,-1.2 L 499.1,247 c -0.4,-0.5 0.1,-1.2 0.7,-1.2 l 5,0 c 0.6,0 1.1,-0.7 0.7,-1.2 l -16.9,-31.1 c -0.3,-0.5 0.1,-1.2 0.7,-1.2 l 4,0 c 0.6,0 1.1,-0.7 0.7,-1.2 l -13.6,-23.4 c -0.4,-0.5 0.1,-1.2 0.7,-1.2 l 6.7,0 c 0.6,0 1,-0.6 0.7,-1.2 l -9.9,-19.5 c -0.3,-0.5 0.1,-1.2 0.7,-1.2 l 3.7,0 c 0.6,0 1,-0.6 0.7,-1.2 L 471,136.7 c -0.4,-0.6 -1.2,-0.6 -1.5,0.1 l -10.7,26.8 c -0.2,0.5 0.2,1.2 0.8,1.2 l 2.5,0 c 0.6,0 1,0.6 0.7,1.2 l -9.1,19.6 c -0.3,0.5 0.2,1.2 0.7,1.2 l 5.2,0 c 0.6,0 1.1,0.7 0.7,1.2 l -14.8,25.1 c -0.4,0.5 0.1,1.2 0.7,1.2 l 6,0 c 0.6,0 1.1,0.7 0.7,1.2 l -17.3,30.3 c -0.4,0.5 0.1,1.2 0.7,1.2 l 3.2,0 c 0.6,0 1,0.6 0.7,1.2 l -7.5,16 z" /><path
     style="fill:#3a82b4"
     inkscape:connector-curvature="0"
     id="path13"
     d="m -0.2,283.7 42.9,0.2 c 0.4,0 0.9,0.4 0.9,0.9 l 0,18.6 c 0,0.5 0.4,0.9 0.9,0.9 l 6,-0.4 c 0.4,0 0.8,-0.4 0.8,-0.9 l -0.2,-18.4 c 0,-0.4 0.4,-0.9 0.9,-0.9 l 41.3,0 c 0.6,0 1.1,-0.6 0.8,-1.2 L 65,215.1 c -0.3,-0.5 0.2,-1.2 0.8,-1.2 l 4.4,0 c 0.7,0 1.1,-0.7 0.7,-1.3 l -14,-23.8 c -0.4,-0.5 0.1,-1.3 0.7,-1.3 l 5.8,0 c 0.6,0 1.1,-0.7 0.8,-1.2 l -9.9,-19.5 c -0.3,-0.5 0.1,-1.2 0.8,-1.2 l 3.6,0 c 0.6,0 1.1,-0.7 0.8,-1.2 L 47.3,140 c -0.4,-0.6 -1.2,-0.6 -1.6,0 l -10.9,25.2 c -0.3,0.5 0.2,1.2 0.8,1.2 l 2.6,0 c 0.6,0 1.1,0.6 0.8,1.2 l -9,18.8 c -0.3,0.5 0.2,1.2 0.8,1.2 l 4.5,0 c 0.6,0 1.1,0.7 0.8,1.2 L 23.2,213 c -0.3,0.5 0.1,1.2 0.8,1.2 l 4.4,0 c 0.6,0 1.1,0.7 0.8,1.2 L 12.8,246 c -0.3,0.5 0.1,1.2 0.8,1.2 l 4.6,0 c 0.6,0 1.1,0.7 0.7,1.3 l -19.7,33.9 c -0.5,0.6 -0.1,1.3 0.6,1.3 z" /><polygon
     style="fill:#513023"
     id="polygon15"
     points="435.4,285.6 435.4,262.7 431.7,264.7 431.7,285.6 " /><ellipse
     style="fill:#ffffff"
     id="ellipse17"
     ry="13.7"
     rx="17.1"
     cy="206.2"
     cx="426.89999" /><ellipse
     style="fill:#ffffff"
     id="ellipse19"
     ry="4.6999998"
     rx="5.1999998"
     cy="204"
     cx="454.79999" /><ellipse
     style="fill:#ffffff"
     id="ellipse21"
     ry="4.6999998"
     rx="5.1999998"
     cy="249.8"
     cx="373" /><ellipse
     style="fill:#ffffff"
     id="ellipse23"
     ry="7.3000002"
     rx="8.1999998"
     cy="261.70001"
     cx="359.60001" /><ellipse
     style="fill:#ffffff"
     id="ellipse25"
     ry="7.4000001"
     rx="8.3000002"
     cy="267.10001"
     cx="391.10001" /><ellipse
     style="fill:#ffffff"
     id="ellipse27"
     ry="7.4000001"
     rx="8.3000002"
     cy="269.89999"
     cx="361.10001" /><path
     style="fill:#513023"
     inkscape:connector-curvature="0"
     id="path29"
     d="m 356.2,280.3 c 0,0 3,8.5 19.2,2.5 l 9.8,8 5.2,-1.2 -13.8,-10 -0.1,-4.4 -5.7,0.3 2.3,1.2 0.4,4.6 c 0,0 -10.8,5.8 -17.1,-1.7 l -0.5,-1.5 -1.2,1.7 1.5,0.5 z" /><ellipse
     style="fill:#ffffff"
     id="ellipse31"
     ry="7.4000001"
     rx="8.3000002"
     cy="270.70001"
     cx="377.10001" /><ellipse
     style="fill:#ffffff"
     id="ellipse33"
     ry="7.4000001"
     rx="8.3000002"
     cy="273.79999"
     cx="380.20001" /><ellipse
     style="fill:#ffffff"
     id="ellipse35"
     ry="7.4000001"
     rx="8.3000002"
     cy="268.20001"
     cx="376.70001" /><ellipse
     style="fill:#ffffff"
     id="ellipse37"
     ry="7.4000001"
     rx="8.3000002"
     cy="263.29999"
     cx="381.5" /><ellipse
     style="fill:#ffffff"
     id="ellipse39"
     ry="7.4000001"
     rx="8.3000002"
     cy="258.39999"
     cx="374" /><ellipse
     style="fill:#ffffff"
     id="ellipse41"
     ry="7.4000001"
     rx="8.3000002"
     cy="258.70001"
     cx="369" /><ellipse
     style="fill:#ffffff"
     id="ellipse43"
     ry="7.4000001"
     rx="8.3000002"
     cy="265.20001"
     cx="366.60001" /><ellipse
     style="fill:#ffffff"
     id="ellipse45"
     ry="7.4000001"
     rx="8.3000002"
     cy="273.5"
     cx="368.89999" /><ellipse
     style="fill:#ffffff"
     id="ellipse47"
     ry="4"
     rx="4.5"
     cy="277.20001"
     cx="354.5" /><ellipse
     style="fill:#ffffff"
     id="ellipse49"
     ry="7.5999999"
     rx="8.5"
     cy="273.70001"
     cx="146.7" /><ellipse
     style="fill:#ffffff"
     id="ellipse51"
     ry="7.5999999"
     rx="8.5"
     cy="273.39999"
     cx="156.3" /><ellipse
     style="fill:#ffffff"
     id="ellipse53"
     ry="7.5999999"
     rx="8.5"
     cy="262.60001"
     cx="156.60001" /><ellipse
     style="fill:#ffffff"
     id="ellipse55"
     ry="7.5999999"
     rx="8.5"
     cy="255.39999"
     cx="170" /><path
     style="fill:#513023"
     inkscape:connector-curvature="0"
     id="path57"
     d="m 148.3,293.4 9.3,-6.4 2.6,-1.9 1.8,-1.8 c 0,0 1,-1.6 1,-1.8 0,-0.2 -0.1,-1.8 -0.1,-1.8 l -0.4,-2 1.1,-1.2 2.8,1.1 -0.3,7.6 9.6,0.3 5.5,-3.5 2.4,2.2 -5.1,2.9 -1.3,0.5 c 0,0 -1,0.3 -1.7,0.3 -0.7,0 -3.4,0.2 -3.8,0.2 -0.4,0 -3,0 -3.4,0 -0.4,0 -2.6,0 -3.3,0 -0.7,0 -2.9,0.1 -2.9,0.1 l -12.7,7.8 -3.6,-0.8 2.5,-1.8 z" /><ellipse
     style="fill:#ffffff"
     id="ellipse59"
     ry="7.5999999"
     rx="8.5"
     cy="265.20001"
     cx="169.8" /><ellipse
     style="fill:#ffffff"
     id="ellipse61"
     ry="7.5999999"
     rx="8.5"
     cy="263.89999"
     cx="180.39999" /><ellipse
     style="fill:#ffffff"
     id="ellipse63"
     ry="7.5999999"
     rx="8.5"
     cy="273.70001"
     cx="170.89999" /><polygon
     style="fill:#513023"
     id="polygon65"
     points="100.8,296.9 100.9,266.1 97.1,266.8 97.3,297.3 " /><ellipse
     style="fill:#ffffff"
     id="ellipse67"
     ry="5.1999998"
     rx="5.9000001"
     cy="280.29999"
     cx="185.60001" /><ellipse
     style="fill:#ffffff"
     id="ellipse69"
     ry="2.5"
     rx="2.8"
     cy="246.8"
     cx="160.2" /><ellipse
     style="fill:#ffffff"
     id="ellipse71"
     ry="21.6"
     rx="24.200001"
     cy="253.60001"
     cx="118.8" /><ellipse
     style="fill:#ffffff"
     id="ellipse73"
     ry="21.6"
     rx="24.200001"
     cy="246.3"
     cx="99.699997" /><ellipse
     style="fill:#ffffff"
     id="ellipse75"
     ry="16.4"
     rx="26.5"
     cy="232.39999"
     cx="109.3" /><ellipse
     style="fill:#ffffff"
     id="ellipse77"
     ry="17.200001"
     rx="18.9"
     cy="255.8"
     cx="85.400002" /><ellipse
     style="fill:#ffffff"
     id="ellipse79"
     ry="4.8000002"
     rx="5.3000002"
     cy="211.8"
     cx="77.5" /><ellipse
     style="fill:#ffffff"
     id="ellipse81"
     ry="18.200001"
     rx="20.299999"
     cy="219.2"
     cx="106.8" /><ellipse
     style="fill:#ffffff"
     id="ellipse83"
     ry="4.3000002"
     rx="4.8000002"
     cy="275.29999"
     cx="95.699997" /><ellipse
     style="fill:#ffffff"
     id="ellipse85"
     ry="19.799999"
     rx="20.4"
     cy="236.3"
     cx="74.400002" /><ellipse
     style="fill:#ffffff"
     id="ellipse87"
     ry="23.6"
     rx="26.299999"
     cy="246.5"
     cx="418" /><ellipse
     style="fill:#ffffff"
     id="ellipse89"
     ry="14.2"
     rx="15.9"
     cy="226.3"
     cx="400.79999" /><ellipse
     style="fill:#ffffff"
     id="ellipse91"
     ry="21"
     rx="23.6"
     cy="232.2"
     cx="457.29999" /><ellipse
     style="fill:#ffffff"
     id="ellipse93"
     ry="12.2"
     rx="13.6"
     cy="251.39999"
     cx="454" /><ellipse
     style="fill:#ffffff"
     id="ellipse95"
     ry="5.5"
     rx="6.1999998"
     cy="268.89999"
     cx="445.39999" /><path
     style="fill:#c3e9f6"
     inkscape:connector-curvature="0"
     id="path97"
     d="m 169.3,305.3 c -4.3,1.9 -4.7,2.8 -5.3,7.2 -0.5,3.5 1.2,7.7 4.7,8.2 l 378.9,0 0,-24.5 0,-6 -0.3,-2 c -18.5,11.9 -44.9,11.5 -66.8,8.4 -21.9,-3.2 -44.2,-8.9 -66.1,-5.7 -15.2,2.2 -29.5,8.6 -44.8,10.1 -28.3,2.8 -56.3,-11.2 -84.8,-8.9 -17.7,1.5 -33.9,9.3 -51.1,13.2" /><path
     style="fill:#a8e4f4"
     inkscape:connector-curvature="0"
     id="path99"
     d="m 169.6,302.5 c -4.3,1.2 -4.7,1.8 -5.3,4.5 -0.5,2.2 1.2,4.8 4.7,5.1 l 378.7,0 0,-15.4 0,-3.7 -2.7,-1.2 c -18.5,7.5 -42.4,7.3 -64.3,5.2 -22,-2 -44.1,-5.5 -66.1,-3.6 -15.2,1.4 -29.5,5.3 -44.8,6.3 -28.3,1.8 -56.3,-7 -84.7,-5.5 -17.6,1 -33.9,5.8 -51.1,8.3" /><path
     style="fill:#ffffff"
     inkscape:connector-curvature="0"
     id="path101"
     d="m 256.3,256.4 c -3.3,2.1 -5.3,5.8 -5.4,9.6 -0.1,2.9 0.9,5.7 0.9,8.6 0,8.4 -7.9,17.2 -3.1,24.1 4.1,5.8 19.5,15.1 20.1,22.2 -30.3,4.6 -64.6,-0.5 -95,3.5 -2.7,0.4 -11.8,-0.2 -13.4,-4.8 -0.2,-5.2 2.2,-15.3 5.4,-18.2 14.7,-13.2 28.3,-26.2 43.3,-39.2 4.4,-3.7 9.6,-6.8 14.8,-9.2 8.8,-3.8 18.3,-6 27.8,-6.4 3.3,-0.1 6.7,0 8.8,3.5 1.1,3.9 -2,4.8 -4.2,6.3 z" /><g
     id="g103"><path
       style="fill:#3a82b4"
       inkscape:connector-curvature="0"
       id="path105"
       d="m 248.4,261.7 c -1.4,3.8 -5.7,6.7 -10.4,5.8 0.2,0.3 0.3,0.5 0.4,0.8 2.9,5.2 5.9,10.6 8.7,15.8 0.4,0.6 0.7,0.8 1.3,0.9 3.7,0.5 7.8,-1.9 9.3,-5.2 0.3,-0.5 0.2,-1 -0.1,-1.5 -3,-5.2 -5.9,-10.7 -8.9,-15.9 0.1,-0.3 -0.1,-0.5 -0.3,-0.7 z m -5.9,9.5 c 3,-0.2 5.1,-1.4 6.7,-3.7 -0.6,2.3 -4.1,4.3 -6.7,3.7 z m 9.3,1 c -0.5,2.3 -4.5,4.5 -6.4,3.7 2.8,-0.2 4.7,-1.4 6.4,-3.7 z m -3.6,8.4 c 2.6,-0.3 4.5,-1.5 6.2,-3.7 -0.7,2.3 -3.9,4.1 -6.2,3.7 z" /><path
       style="fill:#3a82b4"
       inkscape:connector-curvature="0"
       id="path107"
       d="m 277,260.9 c -0.4,-0.8 -0.7,-1.5 -1.2,-2.3 -7.1,4.3 -14.2,8.5 -21.4,12.8 0.4,0.8 0.8,1.5 1.2,2.3 7.1,-4.4 14.2,-8.6 21.4,-12.8 z" /><path
       style="fill:#3a82b4"
       inkscape:connector-curvature="0"
       id="path109"
       d="m 287.1,258.6 c -0.4,-0.8 -0.8,-1.5 -1.2,-2.3 -2.8,1.4 -5.6,2.8 -9,2.5 0.7,2 0.8,2 2.7,2 2.7,0 5.1,-0.9 7.5,-2.2 z" /><path
       style="fill:#3a82b4"
       inkscape:connector-curvature="0"
       id="path111"
       d="m 276.4,258.3 c 1.1,0.3 1.9,0.3 2.7,-0.4 1.2,-1 2.5,-1.8 3.7,-2.6 0.3,-0.2 0.4,-0.4 0.8,-0.5 -0.4,-0.8 -0.8,-1.4 -1.2,-2.3 -2.6,1.5 -4.7,2.9 -6,5.8 z" /><path
       style="fill:#3a82b4"
       inkscape:connector-curvature="0"
       id="path113"
       d="m 284.8,256.4 c 0.4,-0.2 0.6,-0.3 1,-0.4 -0.8,-1.4 -1.5,-2.8 -2.3,-4 -0.4,0.2 -0.5,0.3 -1,0.4 0.8,1.4 1.5,2.6 2.3,4 z" /><path
       style="fill:#ffffff"
       inkscape:connector-curvature="0"
       id="path115"
       d="m 242.5,271.2 c 2.7,0.6 6,-1.3 6.7,-3.7 -1.6,2.3 -3.7,3.5 -6.7,3.7 z" /><path
       style="fill:#ffffff"
       inkscape:connector-curvature="0"
       id="path117"
       d="m 251.8,272.2 c -1.7,2.3 -3.7,3.6 -6.4,3.7 1.9,0.8 5.9,-1.4 6.4,-3.7 z" /><path
       style="fill:#ffffff"
       inkscape:connector-curvature="0"
       id="path119"
       d="m 248.2,280.6 c 2.4,0.4 5.5,-1.4 6.2,-3.7 -1.7,2.2 -3.8,3.3 -6.2,3.7 z" /></g><g
     id="g121"><path
       style="fill:#3a82b4"
       inkscape:connector-curvature="0"
       id="path123"
       d="m 319.6,280.1 c 1.9,3.2 1.3,7.8 -2,10.6 0.3,0.1 0.5,0.2 0.7,0.2 5.2,1.1 10.7,2 15.9,3.1 0.6,0.1 1,0 1.4,-0.4 2.5,-2.2 3.3,-6.5 1.8,-9.4 -0.3,-0.4 -0.5,-0.7 -1.1,-0.8 -5.3,-1 -10.8,-2 -16.1,-3.1 -0.1,-0.1 -0.3,-0.1 -0.6,-0.2 z m 3.2,9.6 c 1.6,-2.1 2,-4.3 1.3,-6.8 1.2,1.8 0.6,5.3 -1.3,6.8 z m 6,-6 c 1.3,1.7 0.5,5.8 -1.2,6.6 1.4,-2 1.8,-4.1 1.2,-6.6 z m 3.6,7.4 c 1.3,-2 1.7,-4 1.1,-6.4 1.2,1.8 0.6,5.1 -1.1,6.4 z" /><path
       style="fill:#3a82b4"
       inkscape:connector-curvature="0"
       id="path125"
       d="m 335.4,259.9 c -0.8,-0.2 -1.5,-0.4 -2.3,-0.5 -1.2,7.4 -2.3,14.8 -3.5,22.2 0.8,0.2 1.5,0.4 2.3,0.5 1.2,-7.5 2.4,-14.7 3.5,-22.2 z" /><path
       style="fill:#3a82b4"
       inkscape:connector-curvature="0"
       id="path127"
       d="m 339.7,251.5 c -0.8,-0.2 -1.5,-0.3 -2.3,-0.4 -0.7,2.8 -1.4,5.4 -3.5,7.6 1.8,0.6 1.9,0.6 2.9,-0.7 1.6,-1.8 2.4,-4 2.9,-6.5 z" /><path
       style="fill:#3a82b4"
       inkscape:connector-curvature="0"
       id="path129"
       d="m 333.4,258.7 c 0.8,-0.6 1.2,-1.2 1.2,-2.1 0,-1.3 0.2,-2.7 0.4,-4 0,-0.3 0.1,-0.5 0.1,-0.8 -0.8,-0.2 -1.4,-0.3 -2.3,-0.4 -0.5,2.5 -0.7,4.9 0.6,7.3 z" /><path
       style="fill:#3a82b4"
       inkscape:connector-curvature="0"
       id="path131"
       d="m 336.9,252 c 0.1,-0.4 0.2,-0.6 0.2,-1 -1.4,-0.3 -2.8,-0.5 -4.1,-0.8 -0.1,0.3 -0.2,0.5 -0.3,0.9 1.5,0.3 2.8,0.6 4.2,0.9 z" /><path
       style="fill:#ffffff"
       inkscape:connector-curvature="0"
       id="path133"
       d="m 322.8,289.7 c 2,-1.5 2.6,-4.9 1.3,-6.8 0.6,2.4 0.2,4.5 -1.3,6.8 z" /><path
       style="fill:#ffffff"
       inkscape:connector-curvature="0"
       id="path135"
       d="m 328.8,283.7 c 0.6,2.5 0.3,4.5 -1.2,6.6 1.7,-0.7 2.5,-4.9 1.2,-6.6 z" /><path
       style="fill:#ffffff"
       inkscape:connector-curvature="0"
       id="path137"
       d="m 332.4,291.1 c 1.7,-1.4 2.3,-4.6 1.1,-6.4 0.6,2.4 0.2,4.5 -1.1,6.4 z" /></g><path
     style="fill:#ffffff"
     inkscape:connector-curvature="0"
     id="path139"
     d="m 248,295.4 c 2.3,0.3 3.8,2.2 5.5,3.7 1.7,1.5 3.6,2.8 5.2,4.2 1.7,1.4 3.4,3.2 4,5.2 0.2,0.4 0.3,0.9 0.5,1.2 0.6,0.8 2.6,5.2 3.4,6.2 0.2,0.3 0.4,0.4 0.5,0.7 0.2,0.3 0.2,0.6 0.2,0.9 0,0.5 0.1,1.2 0.1,1.7 0,0.2 0,0.4 -0.1,0.4 -0.1,0.1 -0.2,0.2 -0.4,0.3 -1.1,0.5 -2.2,0.9 -3.5,1.1 -0.5,0.1 -1.1,0.1 -1.5,-0.1 -0.5,-0.2 -0.9,-0.5 -1.2,-0.9 -2.8,-2.4 -5.4,-4.8 -8.2,-7.2 -0.6,-0.5 -1.3,-1.2 -2.1,-1.5 -0.6,-0.3 -1.2,-0.4 -1.9,-0.6 -2.7,-0.7 -5.2,-1.4 -7.6,-2.8 -2.4,-1.5 -4.2,-3.7 -6.4,-5.4 1.4,-0.6 2,-2.3 2.8,-3.6 1,-1.2 2.4,-1.9 3.7,-2.3 1.4,-0.4 3,-0.4 4.4,-0.6 0.4,0 0.9,-0.1 1.2,-0.4 0.2,-0.1 0.3,-0.3 0.4,-0.4 0.6,0.2 0.8,0.2 1,0.2 z" /><path
     style="fill:#ffffff"
     inkscape:connector-curvature="0"
     id="path141"
     d="m 252.9,295.2 c 0.3,1.6 0.5,3.6 -0.2,4.3 -0.4,0.4 -0.8,0.3 -1.2,0.4 -1.8,0.2 -2.9,3.1 -3.3,6.1 -0.3,3.2 0.2,6.6 0.6,9.9 -1.7,-2.5 -3.4,-5 -4.4,-8.3 -1.2,-3.3 -1.8,-6.9 -2.4,-10.6 -1.5,-7.8 -3.6,-15.5 -6,-22.7 -1.1,-3.1 -2.3,-6.8 -1.5,-9.7 0.2,-0.7 0.5,-1.3 0.6,-2.2 0.1,-0.8 -0.2,-2 -0.7,-2.1 2.5,-0.6 4.9,-1.2 7.5,-1.8 0.7,-0.2 1.5,-0.4 2.2,0.3 1,0.8 1.6,2.8 2.1,4.5 1.1,3.8 2.1,7.7 3,11.7 0.5,2.5 1,4.9 1.4,7.4 0.8,4.3 1.6,8.6 2.3,12.8 z" /><path
     style="fill:#ffffff"
     inkscape:connector-curvature="0"
     id="path143"
     d="m 337.7,292.6 c 0.2,1.2 -0.3,2.5 -1.2,3.2 -1.2,1 -2.8,1 -4.4,0.9 -6.7,-0.4 -13.2,-1.8 -19.6,-3.4 -0.9,-0.3 -2,-0.5 -2.3,-1.4 -0.3,-0.7 0.1,-1.6 0.7,-2.1 0.6,-0.5 1.4,-0.7 2.2,-0.9 2.8,-0.4 5.5,-0.1 8.4,0.4 1.9,0.3 3.7,0.5 5.5,0.8 1.2,0.2 2.5,0.4 3.7,0.8 2.2,0.6 4.6,2.3 7,1.7 z" /><ellipse
     style="fill:#ffffff"
     id="ellipse145"
     ry="6"
     rx="5.5"
     cy="252.60001"
     cx="370.60001" /><path
     style="fill:#4ebf7a"
     inkscape:connector-curvature="0"
     id="path147"
     d="m 362.3,276.7 2.6,-5.5 2.5,-8.8 c 0.3,-1 0.6,-2 -0.4,-2.2 l 0,0 c -1,-0.3 -2.8,0.3 -3.1,1.2 l -1.8,8.1 -2.4,7.8 c -0.3,1 0.3,0.4 1.2,0.7 l 0,0 c 1,0.3 1.1,-0.3 1.4,-1.3 z" /><path
     style="fill:#4ebf7a"
     inkscape:connector-curvature="0"
     id="path149"
     d="m 381.7,257.8 -7.4,2.7 c -1.1,0.4 -1.6,1.6 -1.2,2.7 l 0,0.1 c 0.4,1.1 1.6,1.6 2.7,1.2 l 7.4,-2.7 c 1.1,-0.4 1.6,-1.6 1.2,-2.7 l 0,-0.1 c -0.5,-1.1 -1.7,-1.7 -2.7,-1.2 z" /><path
     style="fill:#00a9db"
     inkscape:connector-curvature="0"
     id="path151"
     d="m 375.1,278.5 -8.4,0 c -1.2,0 -2.2,-1.1 -2.2,-2.3 l 0,-13 c 0,-1 0.4,-2 1.1,-2.7 0.4,-0.3 0.7,-0.5 1.2,-0.4 0.6,0 1.2,0.5 1.8,0.7 0.7,0.2 1.3,0.2 2,0.3 0.8,0 1.5,0 2.3,-0.2 0.7,-0.2 1.3,-0.6 2,-0.8 1.5,-0.3 2.5,1.9 2.5,3.1 l 0,13 c -0.3,1.2 -1.3,2.3 -2.3,2.3 z" /><path
     style="fill:#3a82b4"
     inkscape:connector-curvature="0"
     id="path153"
     d="m 370.4,261.1 c -2.8,0 -4.1,-1.1 -4.2,-1.1 l 0.7,-2.6 c 0.2,0.1 2.5,2.9 6.6,0.3 l 0.9,2.3 c -1.6,1.1 -2.5,1.1 -4,1.1 z" /><polygon
     style="fill:#3a82b4;stroke:#3a82b4;stroke-width:1.12320006;stroke-linecap:round;stroke-linejoin:round;stroke-miterlimit:10"
     id="polygon155"
     points="368,265.7 369.3,260.5 367.2,260 365.6,265 "
     stroke-miterlimit="10" /><polygon
     style="fill:#3a82b4;stroke:#3a82b4;stroke-width:1.12320006;stroke-linecap:round;stroke-linejoin:round;stroke-miterlimit:10"
     id="polygon157"
     points="371.5,263.6 370.6,259.6 368.9,260.1 369.6,264 "
     stroke-miterlimit="10" /><path
     style="fill:#4ebf7a"
     inkscape:connector-curvature="0"
     id="path159"
     d="m 380.5,258.9 -2.6,5.2 c -0.6,0.9 -1.2,2.1 -0.4,2.8 l 0.2,0.1 c 0.9,0.6 0.4,1.2 1,0.4 l 5.2,-6 c 0.6,-0.9 0.4,-2.1 -0.5,-2.8 l -0.2,-0.1 c -0.8,-0.7 -2.1,-0.5 -2.7,0.4 z" /><path
     style="fill:#3a82b4"
     inkscape:connector-curvature="0"
     id="path161"
     d="m 352.7,273.4 c -0.8,2.8 -3.6,5 -6.8,4.7 0.1,0.2 0.2,0.4 0.3,0.5 2.2,3.5 4.4,6.8 6.6,10.2 0.3,0.4 0.5,0.5 1,0.5 2.6,0.1 5.2,-1.9 6.1,-4.2 0.1,-0.4 0.1,-0.6 -0.1,-1 -2.2,-3.5 -4.4,-6.8 -6.7,-10.3 -0.2,0 -0.3,-0.2 -0.4,-0.4 z m -3.8,6.9 c 2,-0.4 3.5,-1.3 4.4,-3.1 -0.4,1.8 -2.5,3.4 -4.4,3.1 z m 6.4,0 c -0.3,1.6 -3,3.5 -4.2,3 1.8,-0.2 3.2,-1.3 4.2,-3 z m -2.2,6.1 c 1.8,-0.4 3.1,-1.3 4.1,-3 -0.3,1.5 -2.4,3.1 -4.1,3 z" /><path
     style="fill:#3a82b4"
     inkscape:connector-curvature="0"
     id="path163"
     d="m 372,270.7 c -0.3,-0.5 -0.5,-1 -0.9,-1.5 -4.7,3.5 -9.4,6.8 -14.1,10.4 0.3,0.5 0.6,1 0.9,1.5 4.7,-3.5 9.4,-6.9 14.1,-10.4 z" /><path
     style="fill:#3a82b4"
     inkscape:connector-curvature="0"
     id="path165"
     d="m 379,268.4 c -0.4,-0.5 -0.6,-1 -1,-1.5 -1.9,1.2 -3.7,2.3 -6,2.4 0.5,1.2 0.6,1.3 1.9,1.2 1.8,-0.2 3.4,-1 5.1,-2.1 z" /><path
     style="fill:#3a82b4"
     inkscape:connector-curvature="0"
     id="path167"
     d="m 371.6,268.9 c 0.8,0.1 1.2,0 1.8,-0.5 0.7,-0.8 1.6,-1.4 2.4,-2 0.2,-0.1 0.4,-0.3 0.5,-0.4 -0.3,-0.4 -0.6,-1 -1,-1.5 -1.5,1.3 -3,2.6 -3.7,4.4 z" /><path
     style="fill:#3a82b4"
     inkscape:connector-curvature="0"
     id="path169"
     d="m 377.2,267.2 c 0.3,-0.2 0.4,-0.3 0.6,-0.4 -0.6,-0.9 -1.2,-1.8 -1.7,-2.7 -0.2,0.1 -0.4,0.3 -0.6,0.4 0.5,0.9 1.2,1.8 1.7,2.7 z" /><path
     style="fill:#ffffff"
     inkscape:connector-curvature="0"
     id="path171"
     d="m 348.9,280.3 c 1.9,0.3 4,-1.3 4.4,-3.1 -0.9,1.8 -2.3,2.9 -4.4,3.1 z" /><path
     style="fill:#ffffff"
     inkscape:connector-curvature="0"
     id="path173"
     d="m 355.3,280.3 c -1.1,1.7 -2.4,2.8 -4.2,3 1.3,0.4 4,-1.4 4.2,-3 z" /><path
     style="fill:#ffffff"
     inkscape:connector-curvature="0"
     id="path175"
     d="m 353.1,286.4 c 1.7,0.2 3.7,-1.3 4.1,-3 -1,1.5 -2.3,2.5 -4.1,3 z" /><circle
     style="fill:#ffffff"
     id="circle177"
     r="1"
     cy="265.79999"
     cx="369.79999" /><circle
     style="fill:#ffffff"
     id="circle179"
     r="1"
     cy="275.20001"
     cx="370.5" /><path
     style="fill:#00a9db"
     inkscape:connector-curvature="0"
     id="path181"
     d="m 377.4,291.1 0,0.5 -5.8,1.2 -0.1,-1.5 -0.7,-10.2 c 0,-0.8 -1.4,-3.6 2,-3.7 l 3.5,0 c 0.6,0 1.2,0.7 1.2,1.7 l 0,12 -0.1,0 z" /><path
     style="fill:#00a9db"
     inkscape:connector-curvature="0"
     id="path183"
     d="m 364.7,291 c 0,0.9 -0.4,2.8 0.3,2.8 l 5.1,-0.7 c 0.7,0 0.5,-1.1 0.5,-1.9 l 0.7,-10.2 c 0,-0.8 1.4,-3.6 -2,-3.7 l -3.5,0 c -0.6,0 -1.2,0.7 -1.2,1.7 l 0,12 z" /><path
     style="fill:#3a82b4"
     inkscape:connector-curvature="0"
     id="path185"
     d="m 364.8,249.7 c 0,0 1.2,-12.4 12.3,-4.2 0,0 0.5,1.9 -0.3,2 -0.4,0.1 -2,-1.2 -0.5,0.1 0.7,0.6 0.5,1.6 0.2,2 l -6.1,-2.1 -5.6,2.2 z" /><path
     style="fill:#4ebf7a"
     inkscape:connector-curvature="0"
     id="path187"
     d="m 368.2,251.7 0,0 c -0.3,0 -0.4,-0.2 -0.4,-0.4 l 0,-0.3 c 0,-0.3 0.2,-0.4 0.4,-0.4 l 0,0 c 0.3,0 0.4,0.2 0.4,0.4 l 0,0.3 c 0.1,0.2 -0.2,0.4 -0.4,0.4 z" /><circle
     style="fill:#4ebf7a"
     id="circle189"
     r="1.3"
     cy="248.2"
     cx="365.79999" /><circle
     style="fill:#4ebf7a"
     id="circle191"
     r="1.3"
     cy="247.39999"
     cx="367.29999" /><circle
     style="fill:#4ebf7a"
     id="circle193"
     r="1.3"
     cy="247.39999"
     cx="368.70001" /><circle
     style="fill:#4ebf7a"
     id="circle195"
     r="1.3"
     cy="246.5"
     cx="369.39999" /><circle
     style="fill:#4ebf7a"
     id="circle197"
     r="1.3"
     cy="246.89999"
     cx="371" /><circle
     style="fill:#4ebf7a"
     id="circle199"
     r="1.3"
     cy="247.39999"
     cx="370.70001" /><circle
     style="fill:#4ebf7a"
     id="circle201"
     r="1.3"
     cy="247.8"
     cx="372.29999" /><circle
     style="fill:#4ebf7a"
     id="circle203"
     r="1.3"
     cy="247"
     cx="372.89999" /><circle
     style="fill:#4ebf7a"
     id="circle205"
     r="1.3"
     cy="248.39999"
     cx="374.10001" /><circle
     style="fill:#4ebf7a"
     id="circle207"
     r="1.3"
     cy="248.5"
     cx="375.10001" /><circle
     style="fill:#4ebf7a"
     id="circle209"
     r="1.3"
     cy="249.89999"
     cx="375.20001" /><circle
     style="fill:#4ebf7a"
     id="circle211"
     r="1.3"
     cy="249.7"
     cx="376" /><circle
     style="fill:#4ebf7a"
     id="circle213"
     r="1.3"
     cy="249.5"
     cx="365.5" /><g
     id="g215"><circle
       style="fill:#4ebf7a"
       id="circle217"
       r="0.69999999"
       cy="245.10001"
       cx="377.10001" /><circle
       style="fill:#4ebf7a"
       id="circle219"
       r="0.80000001"
       cy="246.10001"
       cx="376.89999" /><circle
       style="fill:#4ebf7a"
       id="circle221"
       r="0.40000001"
       cy="245.5"
       cx="377.60001" /><circle
       style="fill:#4ebf7a"
       id="circle223"
       r="0.69999999"
       cy="245.89999"
       cx="376.5" /><circle
       style="fill:#4ebf7a"
       id="circle225"
       r="0.60000002"
       cy="245"
       cx="376.5" /><circle
       style="fill:#4ebf7a"
       id="circle227"
       r="0.40000001"
       cy="245.89999"
       cx="378" /><circle
       style="fill:#4ebf7a"
       id="circle229"
       r="0.5"
       cy="245.10001"
       cx="377.70001" /><circle
       style="fill:#4ebf7a"
       id="circle231"
       r="0.69999999"
       cy="244.39999"
       cx="377.60001" /></g><path
     style="fill:none;stroke:#3a82b4;stroke-width:3.35800004;stroke-miterlimit:10"
     inkscape:connector-curvature="0"
     id="path233"
     d="m 328.1,252.2 c 0,0 2.8,-11.5 -10.8,-12.3 0,0 -6.8,-0.5 -8.4,7.3"
     stroke-miterlimit="10" /><ellipse
     style="fill:#ffffff"
     id="ellipse235"
     ry="10.5"
     rx="9.6999998"
     cy="253.3"
     cx="318.5" /><path
     style="fill:#4ebf7a"
     inkscape:connector-curvature="0"
     id="path237"
     d="m 325.3,255.3 c 0,3.6 -2.9,6.6 -6.6,6.6 -3.7,0 -6.6,-2.9 -6.6,-6.6 l 13.2,0 z" /><path
     style="fill:#4ebf7a"
     inkscape:connector-curvature="0"
     id="path239"
     d="m 305.7,290.1 6.8,-20.7 c 0.6,-2 -0.2,-3.9 -1.9,-4.4 l 0,0 c -1.7,-0.5 -3.6,0.6 -4.1,2.6 l -6.8,20.3 c -0.6,2 0.3,4.3 1.9,4.9 l 0,0 c 1.6,0.4 3.4,-0.7 4.1,-2.7 z" /><path
     style="fill:#4ebf7a"
     inkscape:connector-curvature="0"
     id="path241"
     d="m 339.9,271 -12.1,-5.7 c -1.5,-0.6 -3.2,0.2 -3.7,1.7 l -0.5,1.3 c -0.6,1.5 0.2,3.2 1.7,3.7 l 12.1,5.7 c 1.5,0.6 3.2,-0.2 3.7,-1.7 l 0.5,-1.3 c 0.5,-1.4 -0.2,-3.2 -1.7,-3.7 z" /><path
     style="fill:none;stroke:#35cdd0;stroke-width:0.55970001;stroke-linecap:round;stroke-linejoin:round;stroke-miterlimit:10"
     inkscape:connector-curvature="0"
     id="path243"
     d="m 317.4,250.7 c -0.3,0.8 -1.6,1.4 -1.5,2.3 0.1,1.2 1.8,0.8 2.5,0.8"
     stroke-miterlimit="10" /><path
     style="fill:none;stroke:#35cdd0;stroke-width:0.55970001;stroke-linecap:round;stroke-linejoin:round;stroke-miterlimit:10"
     inkscape:connector-curvature="0"
     id="path245"
     d="m 313.4,249.2 c 0,0 1,-1.2 2.5,0"
     stroke-miterlimit="10" /><path
     style="fill:#00a9db"
     inkscape:connector-curvature="0"
     id="path247"
     d="m 328.3,296.2 0,0 c 0.8,-0.8 1.3,-1.9 1.3,-3.2 l 0.9,-22.8 c 0,-2.3 -2.7,-6.8 -5.1,-6.3 -1.2,0.2 -2.3,-0.7 -3.5,-0.4 -1.2,0.3 -2.6,0.4 -3.8,0.3 -1.2,0 -3.3,-0.1 -4.4,-0.4 -1,-0.3 -2,0.6 -2.9,0.5 -0.7,0 -2.3,1.2 -2.8,1.7 -1.2,1.2 -1.8,3 -1.8,4.6 l 0.9,23.7 c 0,1.2 0.5,2.3 1.2,3.1 -0.8,0.4 -1.4,1.4 -1.4,2.7 l 0,18.3 c 0,1.5 0.8,2.8 1.9,2.8 l 6.1,0 c 1.2,0 2.3,-1 2.3,-2.2 l 0.9,-11.2 0.9,11.4 c 0,1.2 1.1,2.2 2.3,2.2 l 6.1,0 c 1.1,0 1.9,-1.2 1.9,-2.8 l 0.9,-19.2 c 0,-1.5 -0.8,-2.8 -1.9,-2.8 z" /><path
     style="fill:none;stroke:#35cdd0;stroke-width:0.55970001;stroke-linecap:round;stroke-linejoin:round;stroke-miterlimit:10"
     inkscape:connector-curvature="0"
     id="path249"
     d="m 319.3,249.2 c 0,0 1,-1.2 2.5,0"
     stroke-miterlimit="10" /><path
     style="fill:#4ebf7a"
     inkscape:connector-curvature="0"
     id="path251"
     d="m 309.4,244.7 c 0.6,-1.8 1.5,-3.5 2.9,-4.5 1.4,-1.2 3.4,-1.8 5.1,-1.2 1.5,0.4 2.8,1.6 4.2,2.1 1.1,0.4 2.1,0.4 3.2,0.8 1.7,0.7 2.8,2.4 3.2,4.1 0.4,1.8 0.4,3.6 0.2,5.3 -1.5,-3.1 -5.6,-3.6 -8,-6 -0.4,-0.4 -0.9,-1 -1.5,-1.1 -1,-0.1 -1.5,1 -2.3,1.5 -1.4,1 -3.6,0 -4.9,1 -1.8,1.2 -2,2.8 -2.6,5.2 -0.7,-2.2 -0.3,-4.9 0.5,-7.2 z" /><path
     style="fill:#3a82b4"
     inkscape:connector-curvature="0"
     id="path253"
     d="m 327.8,255.1 c 0.6,0.1 1.2,0.1 1.8,-0.3 0.5,-0.3 1,-0.8 1,-1.4 0.1,-0.6 -0.3,-1.2 -0.9,-1.4 0.4,-0.4 0.4,-1 0.4,-1.5 -0.1,-0.5 -0.4,-1 -0.9,-1.3 0,-0.4 -0.3,-0.7 -0.6,-0.9 -0.4,-0.2 -0.8,0 -1,0.3 0,0 0.6,2.8 0,5.3 l 0.2,1.2 z" /><path
     style="fill:#3a82b4"
     inkscape:connector-curvature="0"
     id="path255"
     d="m 308.9,253.3 c -0.6,0.1 -1.3,0.1 -2,-0.3 -0.6,-0.4 -1.1,-0.9 -1.1,-1.6 -0.1,-0.6 0.4,-1.3 1,-1.6 -0.4,-0.4 -0.5,-1.1 -0.4,-1.7 0.1,-0.6 0.5,-1.2 1,-1.4 0,-0.4 0.3,-0.8 0.6,-1 0.4,-0.2 0.9,0 1.1,0.4 0,0 -0.7,3 0,5.9 l -0.2,1.3 z" /><path
     style="fill:#3a82b4"
     inkscape:connector-curvature="0"
     id="path257"
     d="m 318.3,267.9 c -1.2,0 -2.5,-0.1 -3.4,-0.3 -2.9,-0.7 -4.2,-1.6 -4.3,-1.7 l 0.3,-1.4 1.7,-2.5 c 0.3,0.2 4.4,4.2 11.7,-0.4 l 1,4.7 c -3,2 -4.7,1.6 -7,1.6 z" /><polygon
     style="fill:#3a82b4;stroke:#3a82b4;stroke-width:1.12320006;stroke-linecap:round;stroke-linejoin:round;stroke-miterlimit:10"
     id="polygon259"
     points="313.4,275.1 315.7,265.8 311.7,265 308.9,273.9 "
     stroke-miterlimit="10" /><polygon
     style="fill:#3a82b4;stroke:#3a82b4;stroke-width:1.12320006;stroke-linecap:round;stroke-linejoin:round;stroke-miterlimit:10"
     id="polygon261"
     points="320.1,272.7 318.5,265.7 315.5,266.5 316.6,273.4 "
     stroke-miterlimit="10" /><path
     style="fill:#ffffff"
     inkscape:connector-curvature="0"
     id="path263"
     d="m 312.7,255.7 11.9,0 -0.2,1.5 -11.5,0 c 0,-0.1 0,-1.8 -0.2,-1.5 z" /><path
     style="fill:#3a82b4"
     inkscape:connector-curvature="0"
     id="path265"
     d="m 281,269.4 c -3.6,2.8 -9.3,2.8 -13.2,-0.9 0,0.4 -0.1,0.6 -0.1,1 -0.4,6.7 -0.9,13.2 -1.3,19.9 -0.1,0.7 0.2,1.2 0.7,1.7 3.1,2.8 8.4,3 11.7,0.7 0.5,-0.4 0.8,-0.7 0.8,-1.4 0.4,-6.7 0.9,-13.4 1.3,-20.1 0.1,-0.3 0.1,-0.5 0.1,-0.9 z m -11.2,5.4 c 2.9,1.7 5.5,1.7 8.5,0.5 -2.1,1.8 -6.4,1.6 -8.5,-0.5 z m 8.1,6.4 c -1.9,1.9 -7,1.5 -8.2,-0.4 2.6,1.5 5.3,1.6 8.2,0.4 z m -8.4,5.6 c 2.6,1.2 5.2,1.4 8,0.3 -2.1,1.8 -6.1,1.6 -8,-0.3 z" /><path
     style="fill:#3a82b4"
     inkscape:connector-curvature="0"
     id="path267"
     d="m 319,289.8 c 0.1,-1 0.1,-1.9 0.2,-2.8 -3.6,-0.4 -6.9,-0.9 -9.9,-3.1 -0.4,2.2 -0.4,2.3 1.3,3.5 2.5,1.5 5.3,2.1 8.4,2.4 z" /><path
     style="fill:#3a82b4"
     inkscape:connector-curvature="0"
     id="path269"
     d="m 309.1,283.1 c 0.9,0.9 1.6,1.3 2.8,1.2 1.7,-0.3 3.4,-0.2 4.9,-0.3 0.4,0 0.6,0 1,0 0.1,-1 0.2,-1.9 0.2,-2.8 -3,-0.1 -6,0 -8.9,1.9 z" /><path
     style="fill:#3a82b4"
     inkscape:connector-curvature="0"
     id="path271"
     d="m 318,286.4 c 0.4,0.1 0.8,0.1 1.2,0.1 0.1,-1.8 0.3,-3.5 0.4,-5.2 -0.4,-0.1 -0.7,-0.1 -1.2,-0.2 -0.1,1.8 -0.2,3.5 -0.4,5.3 z" /><path
     style="fill:#ffffff"
     inkscape:connector-curvature="0"
     id="path273"
     d="m 269.8,274.8 c 2.1,2.2 6.3,2.4 8.5,0.5 -2.9,1.1 -5.6,1 -8.5,-0.5 z" /><path
     style="fill:#ffffff"
     inkscape:connector-curvature="0"
     id="path275"
     d="m 277.9,281.2 c -2.9,1.2 -5.5,1.1 -8.2,-0.4 1.2,1.9 6.4,2.3 8.2,0.4 z" /><path
     style="fill:#ffffff"
     inkscape:connector-curvature="0"
     id="path277"
     d="m 269.5,286.8 c 2,1.9 6,2 8,0.3 -2.9,1.1 -5.5,1.1 -8,-0.3 z" /><circle
     style="fill:#ffffff"
     id="circle279"
     r="1.8"
     cy="276.60001"
     cx="317.10001" /><path
     style="fill:#4ebf7a"
     inkscape:connector-curvature="0"
     id="path281"
     d="m 335.1,272 -14.4,8.7 c -1.4,1.4 -2.4,2.8 -1.1,4.2 l 0,0 c 1.4,1.4 2.8,0.6 4.2,-0.7 l 16.2,-6.9 c 1.4,-1.4 1.5,-3.7 0.2,-5.1 l 0,0 c -1.4,-1.6 -3.7,-1.6 -5.1,-0.2 z" /><circle
     style="fill:#ffffff"
     id="circle283"
     r="1.8"
     cy="292.89999"
     cx="318.39999" /><ellipse
     style="fill:#ffffff"
     id="ellipse285"
     ry="7.9000001"
     rx="6.3000002"
     cy="260.5"
     cx="434.89999" /><path
     style="fill:#4ebf7a"
     inkscape:connector-curvature="0"
     id="path287"
     d="m 430.4,271.4 -0.4,-0.9 c -0.4,-0.9 -1.6,-1.2 -2.5,-0.7 l -6.6,3.6 -7.9,-1.2 c -0.9,-0.4 -2,-0.8 -2.2,0.2 l -0.3,0.7 c -0.4,0.9 0.1,1.1 1.1,1.3 l 9.2,3.5 c 0.2,0.1 0.3,0.1 0.4,0.1 0.4,0.1 0.9,0.1 1.2,-0.2 l 7.3,-3.9 c 0.8,-0.6 1.2,-1.7 0.7,-2.5 z" /><path
     style="fill:none;stroke:#35cdd0;stroke-width:0.42309999;stroke-miterlimit:10"
     inkscape:connector-curvature="0"
     id="path289"
     d="m 434.6,257.8 c 0,2 -1.4,1.8 -1.2,2.9 0.1,0.6 1.5,0.6 2,0.3"
     stroke-miterlimit="10" /><path
     style="fill:#3a82b4"
     inkscape:connector-curvature="0"
     id="path291"
     d="m 434.6,271 c -3.6,0 -6,-1.2 -6,-1.2 l 2.1,-3.9 c 0.2,0.2 3.6,3.7 7.8,0 l 1.6,3.6 c -2.1,1.2 -3.7,1.5 -5.5,1.5 z" /><path
     style="fill:#4ebf7a"
     inkscape:connector-curvature="0"
     id="path293"
     d="m 454.6,260.8 -1.9,0.3 c -1.8,1.3 -2.8,3.5 -3.5,4.6 l -1.2,3.5 -8.5,1 c -1.3,0.4 -2,2 -1.6,3.3 l 0.1,0.4 c 0.4,1.3 2,2 3.3,1.6 l 8.4,-3 c 0.4,-0.2 0.8,-0.4 1.1,-0.8 0.4,-0.3 0.6,-0.5 0.8,-0.9 l 1.7,-4.1 c 0.7,-1.6 2.6,-5.3 1.3,-5.9 z" /><path
     style="fill:#3a82b4"
     inkscape:connector-curvature="0"
     id="path295"
     d="m 402.1,302 c 2.1,2.6 2.3,6.8 -0.1,9.7 0.3,0 0.4,0.1 0.7,0.1 4.6,0.2 9.3,0.3 14,0.4 0.5,0 0.8,-0.2 1.2,-0.5 1.8,-2.4 1.8,-6.2 0,-8.7 -0.3,-0.4 -0.5,-0.5 -1,-0.5 -4.7,-0.2 -9.4,-0.3 -14.1,-0.4 -0.3,-0.1 -0.4,-0.1 -0.7,-0.1 z m 4.2,8.1 c 1.1,-2.1 1,-4.1 0,-6.2 1.4,1.5 1.4,4.6 0,6.2 z m 4.1,-6 c 1.4,1.3 1.3,5.1 0,6 1,-2 1,-4 0,-6 z m 4.3,6 c 0.8,-2 0.8,-3.7 -0.1,-5.9 1.3,1.5 1.3,4.4 0.1,5.9 z" /><path
     style="fill:#3a82b4"
     inkscape:connector-curvature="0"
     id="path297"
     d="m 412.4,281.8 c -0.7,-0.1 -1.3,-0.1 -2,-0.2 0.2,6.8 0.4,13.4 0.5,20.3 0.7,0.1 1.3,0.1 2,0.2 -0.2,-6.8 -0.4,-13.5 -0.5,-20.3 z" /><path
     style="fill:#3a82b4"
     inkscape:connector-curvature="0"
     id="path299"
     d="m 414.7,273.8 c -0.7,0 -1.3,-0.1 -2,-0.1 -0.2,2.6 -0.4,5.1 -1.8,7.3 1.6,0.3 1.7,0.3 2.4,-1.1 1.1,-1.9 1.4,-3.8 1.4,-6.1 z" /><path
     style="fill:#00a9db"
     inkscape:connector-curvature="0"
     id="path301"
     d="m 442.7,292.9 c 0.4,-0.5 0.6,-1.2 0.6,-2 l -2.7,-5 0.9,-6.3 0.9,-6 c 0,-1.8 -1.3,-4.4 -3.2,-4.1 -0.9,0.2 -1.7,0.8 -2.6,1.1 -1,0.3 -2,0.3 -2.9,0.3 -0.9,0 -1.8,-0.1 -2.7,-0.3 -0.7,-0.2 -1.4,-0.9 -2.2,-0.9 -0.5,0 -1.1,0.3 -1.5,0.6 -0.9,0.9 -1.3,2.2 -1.3,3.6 l 0.9,7 0.9,5 -2.7,5.2 c 0,0.8 0.3,1.5 0.7,2 -0.4,0.4 -0.8,1.1 -0.8,1.9 l 1.8,15.7 c 0,1.2 0.7,2.1 1.5,2.1 l 3.7,0 c 1,0 1.8,-0.8 1.8,-1.9 l 0.6,-9.5 0.6,9.6 c 0,1.1 0.8,1.9 1.8,1.9 l 3.7,0 c 0.8,0 1.5,-1 1.5,-2.1 l 1.8,-15.7 c 0.1,-1.2 -0.5,-2 -1.1,-2.2 z" /><path
     style="fill:#3a82b4"
     inkscape:connector-curvature="0"
     id="path303"
     d="m 410.5,281.1 c 0.6,-0.6 0.9,-1.2 0.7,-2 -0.3,-1.2 -0.3,-2.4 -0.4,-3.6 0,-0.3 0,-0.4 -0.1,-0.7 -0.7,0 -1.3,-0.1 -2,-0.1 0.2,2.2 0.4,4.4 1.8,6.4 z" /><path
     style="fill:#3a82b4"
     inkscape:connector-curvature="0"
     id="path305"
     d="m 412.4,274.6 c 0,-0.3 0,-0.5 0,-0.9 -1.2,0 -2.4,-0.1 -3.6,-0.1 0,0.3 0,0.5 -0.1,0.8 1.4,0.1 2.5,0.2 3.7,0.2 z" /><path
     style="fill:#ffffff"
     inkscape:connector-curvature="0"
     id="path307"
     d="m 406.3,310.1 c 1.4,-1.6 1.4,-4.7 0,-6.2 0.9,2 0.9,4.1 0,6.2 z" /><path
     style="fill:#ffffff"
     inkscape:connector-curvature="0"
     id="path309"
     d="m 410.4,304.1 c 0.9,2.1 1,4 0,6 1.5,-1 1.5,-4.7 0,-6 z" /><path
     style="fill:#4ebf7a"
     inkscape:connector-curvature="0"
     id="path311"
     d="m 428.2,261.5 c -0.3,-1.1 -0.3,-2.2 -0.3,-3.4 -0.1,0 -0.1,0 -0.2,0 -0.2,2.2 -1.7,3.7 -1.9,6 -0.1,1.3 0.2,2.7 0.7,3.7 0.4,0.8 0.9,1.6 1.2,2.4 0.6,1.4 0.9,3 0.8,4.4 0.4,-0.8 0.7,-1.6 1.1,-2.3 0.3,-0.7 0.6,-1.3 0.7,-2.1 0.3,-1.3 -0.2,-3.2 0.4,-4.4 -0.9,-0.7 -1.6,-1.7 -2.1,-2.8 -0.2,-0.6 -0.1,-0.6 -0.4,-1.5 z" /><path
     style="fill:#4ebf7a"
     inkscape:connector-curvature="0"
     id="path313"
     d="m 440.7,260.9 c 0.3,-1.1 0,-2.7 0,-3.7 0.1,0 0.1,0 0.2,0 0.2,2.2 2.4,4.4 2.6,6.6 0.1,1.3 -0.2,2.7 -0.7,3.7 -0.4,0.8 -0.9,1.6 -1.2,2.4 -0.6,1.4 -0.9,3 -0.8,4.4 -0.4,-0.8 -0.7,-1.6 -1.1,-2.3 -0.3,-0.7 -0.6,-1.3 -0.7,-2.1 -0.3,-1.3 0.2,-2.8 -0.4,-4 0.9,-0.7 1.1,-1.8 1.7,-2.8 0.3,-0.9 0.2,-1.3 0.4,-2.2 z" /><path
     style="fill:#ffffff"
     inkscape:connector-curvature="0"
     id="path315"
     d="m 414.7,310.1 c 1.2,-1.5 1.2,-4.4 -0.1,-5.9 0.9,2 0.9,3.9 0.1,5.9 z" /><path
     style="fill:#3a82b4"
     inkscape:connector-curvature="0"
     id="path317"
     d="m 443.1,256.6 c -0.4,0.9 -1.3,1.9 -1.6,2.8 0,0 -2.1,-4.4 -6.8,-4.6 -4.8,-0.2 -7,4.4 -7,4.4 -0.4,-1.1 -0.7,-2.2 -0.7,-3.5 0,-4.5 3.6,-8.2 8.1,-8.2 4.5,-0.1 9.2,6.5 8,9.1 z" /><circle
     style="fill:#4ebf7a"
     id="circle319"
     r="1.3"
     cy="246.8"
     cx="435.60001" /><circle
     style="fill:#4ebf7a"
     id="circle321"
     r="0.69999999"
     cy="246.3"
     cx="436.29999" /><circle
     style="fill:#4ebf7a"
     id="circle323"
     r="0.5"
     cy="245.8"
     cx="434.70001" /><circle
     style="fill:#4ebf7a"
     id="circle325"
     r="0.60000002"
     cy="247.39999"
     cx="435" /><circle
     style="fill:#4ebf7a"
     id="circle327"
     r="0.5"
     cy="247.39999"
     cx="436.79999" /><circle
     style="fill:#4ebf7a"
     id="circle329"
     r="0.69999999"
     cy="246.7"
     cx="434.60001" /><circle
     style="fill:#4ebf7a"
     id="circle331"
     r="0.69999999"
     cy="245.89999"
     cx="435.70001" /><circle
     style="fill:#4ebf7a"
     id="circle333"
     r="0.69999999"
     cy="247.60001"
     cx="435.79999" /><circle
     style="fill:#4ebf7a"
     id="circle335"
     r="0.69999999"
     cy="246.8"
     cx="436.39999" /><circle
     style="fill:#4ebf7a"
     id="circle337"
     r="0.69999999"
     cy="246"
     cx="436.29999" /><ellipse
     style="fill:#4ebf7a"
     id="ellipse339"
     ry="0.69999999"
     rx="0.5"
     cy="257.70001"
     cx="431.89999" /><ellipse
     style="fill:#4ebf7a"
     id="ellipse341"
     ry="0.69999999"
     rx="0.5"
     cy="257.70001"
     cx="437.5" /><path
     style="fill:none;stroke:#35cdd0;stroke-width:0.3919;stroke-linecap:round;stroke-linejoin:round;stroke-miterlimit:10"
     inkscape:connector-curvature="0"
     id="path343"
     d="m 370.2,251 c -0.2,0.5 -1.2,1.9 -1.1,2.5 0.1,0.8 1.2,0.5 1.8,0.5"
     stroke-miterlimit="10" /><circle
     style="fill:#ffffff"
     id="circle345"
     r="1.3"
     cy="283.39999"
     cx="434.29999" /><path
     style="fill:none;stroke:#35cdd0;stroke-width:0.43200001;stroke-linecap:round;stroke-linejoin:round;stroke-miterlimit:10"
     inkscape:connector-curvature="0"
     id="path347"
     d="m 432.8,263.9 c 0,0 3.7,0.7 5.1,-1.3"
     stroke-miterlimit="10" /><path
     style="fill:none;stroke:#35cdd0;stroke-width:0.43200001;stroke-linecap:round;stroke-linejoin:round;stroke-miterlimit:10"
     inkscape:connector-curvature="0"
     id="path349"
     d="m 437.4,261.8 c 0,0 -0.1,0.4 1.2,0.6"
     stroke-miterlimit="10" /><path
     style="fill:none;stroke:#00a9db;stroke-width:0.56160003;stroke-linecap:round;stroke-linejoin:round;stroke-miterlimit:10"
     inkscape:connector-curvature="0"
     id="path351"
     d="m 428.5,254.3 c 0,0 -0.1,1.3 0.3,1.9"
     stroke-miterlimit="10" /><path
     style="fill:none;stroke:#00a9db;stroke-width:0.56160003;stroke-linecap:round;stroke-linejoin:round;stroke-miterlimit:10"
     inkscape:connector-curvature="0"
     id="path353"
     d="m 430.3,253 c 0,0 -0.1,1.4 0.3,1.8"
     stroke-miterlimit="10" /><path
     style="fill:none;stroke:#00a9db;stroke-width:0.56160003;stroke-linecap:round;stroke-linejoin:round;stroke-miterlimit:10"
     inkscape:connector-curvature="0"
     id="path355"
     d="m 432.4,252.2 c 0,0 -0.2,1 0.2,1.7"
     stroke-miterlimit="10" /><path
     style="fill:none;stroke:#00a9db;stroke-width:0.56160003;stroke-linecap:round;stroke-linejoin:round;stroke-miterlimit:10"
     inkscape:connector-curvature="0"
     id="path357"
     d="m 434.6,252 c -0.1,0.8 0,1.8 0,1.8"
     stroke-miterlimit="10" /><path
     style="fill:none;stroke:#00a9db;stroke-width:0.56160003;stroke-linecap:round;stroke-linejoin:round;stroke-miterlimit:10"
     inkscape:connector-curvature="0"
     id="path359"
     d="m 437.3,252.5 c 0,0 -0.4,0.9 -0.4,1.8"
     stroke-miterlimit="10" /><path
     style="fill:none;stroke:#00a9db;stroke-width:0.56160003;stroke-linecap:round;stroke-linejoin:round;stroke-miterlimit:10"
     inkscape:connector-curvature="0"
     id="path361"
     d="m 439.4,253.6 c 0,0 -0.7,0.9 -0.7,1.6"
     stroke-miterlimit="10" /><path
     style="fill:none;stroke:#00a9db;stroke-width:0.56160003;stroke-linecap:round;stroke-linejoin:round;stroke-miterlimit:10"
     inkscape:connector-curvature="0"
     id="path363"
     d="m 441.4,255.2 c 0,0 -1.1,0.9 -1.1,1.3"
     stroke-miterlimit="10" /><path
     style="fill:#4ebf7a"
     inkscape:connector-curvature="0"
     id="path365"
     d="m 372.1,251.7 0,0 c -0.3,0 -0.4,-0.2 -0.4,-0.4 l 0,-0.3 c 0,-0.3 0.2,-0.4 0.4,-0.4 l 0,0 c 0.3,0 0.4,0.2 0.4,0.4 l 0,0.3 c 0.1,0.2 -0.1,0.4 -0.4,0.4 z" /><path
     style="fill:#4ebf7a"
     inkscape:connector-curvature="0"
     id="path367"
     d="m 373,254.9 c 0,1.2 -1,2.2 -2.2,2.2 -1.2,0 -2.2,-1 -2.2,-2.2 l 4.4,0 z" /><path
     style="fill:#ffffff"
     inkscape:connector-curvature="0"
     id="path369"
     d="m 368.8,255.2 3.9,0 -0.1,0.5 -3.8,0 c 0.1,0 0.1,-0.5 0,-0.5 z" /><circle
     style="fill:#ffffff"
     id="circle371"
     r="1.3"
     cy="275.89999"
     cx="434.39999" /><circle
     style="fill:#ffffff"
     id="circle373"
     r="1.3"
     cy="289.60001"
     cx="434.70001" /><polygon
     style="fill:#3a82b4;stroke:#3a82b4;stroke-width:0.56160003;stroke-linecap:round;stroke-linejoin:round;stroke-miterlimit:10"
     id="polygon375"
     points="435.9,274.3 434.7,268.9 432.6,269.6 433.5,274.9 "
     stroke-miterlimit="10" /><polygon
     style="fill:#3a82b4;stroke:#3a82b4;stroke-width:1.12320006;stroke-linecap:round;stroke-linejoin:round;stroke-miterlimit:10"
     id="polygon377"
     points="431.7,276.9 433.5,270 430.4,269.3 428.3,276.2 "
     stroke-miterlimit="10" /><path
     style="fill:#4ebf7a"
     inkscape:connector-curvature="0"
     id="path379"
     d="m 303.2,287.8 -9.9,-3.6 c -1.2,0 -2.2,-0.5 -2.1,1 l 0,-0.9 c 0,1.5 -1.8,1.7 1.3,3.6 l 9.9,7 c 1.2,0 3.1,-3 3,-4.4 l 0,0 c -0.1,-1.5 -1.1,-2.7 -2.2,-2.7 z" /><path
     style="fill:#3a82b4"
     inkscape:connector-curvature="0"
     id="path381"
     d="m 308.2,285.7 c 0.1,-1 0.2,-1.9 0.3,-2.8 -9.2,-0.3 -18.4,-0.6 -27.6,-0.9 -0.1,1 -0.2,1.9 -0.3,2.8 9.2,0.3 18.3,0.6 27.6,0.9 z" /><path
     style="fill:#4ebf7a"
     inkscape:connector-curvature="0"
     id="path383"
     d="m 292.9,281.9 0,0 c -0.3,-0.2 -0.4,-0.4 -0.6,-0.4 -0.4,-0.1 -0.8,0.2 -1.2,0.3 -0.4,0 -1,-0.1 -1.4,-0.3 -0.2,-0.1 -0.4,-0.2 -0.6,-0.2 -0.2,0 -0.3,0.1 -0.4,0.2 -0.6,0.3 -1.3,-0.3 -1.8,0.3 -0.2,0.2 -0.2,0.5 0,0.7 0.4,0.7 0.8,1.4 1.2,2.1 0.3,0.4 0.4,0.8 0.8,1.2 0.6,0.6 1.4,0.9 2.2,1 0.8,0.1 1.7,-0.1 2.5,-0.4 0.4,-0.1 0.7,-0.3 1,-0.5 0.2,-0.3 0.3,-0.5 0.4,-0.9 0.1,-1.5 -1.2,-2.3 -2.1,-3.1 z" /><path
     style="fill:#4ebf7a"
     inkscape:connector-curvature="0"
     id="path385"
     d="m 319.2,286.8 c 0,0.5 0,1 0.1,1.5 0.6,0 1.2,-0.4 1.6,-1 0.6,-0.8 1.2,-1.9 1.1,-2.8 -0.2,-1 -1,-1.8 -1.7,-2.5 -0.2,-0.1 -0.3,-0.3 -0.5,-0.3 -0.1,0 -0.2,0.1 -0.3,0.1 -1,-0.1 -3.4,-0.8 -3.9,-0.2 -0.1,0.1 -0.2,0.2 -0.2,0.3 -0.1,0.1 -0.1,0.3 -0.1,0.4 0,0.8 0,3.1 0,3.8 0.9,0.2 2.2,0.4 2.4,0.5 0.3,0.4 0.9,0.2 1.5,0.2 z" /><path
     style="fill:#4ebf7a"
     inkscape:connector-curvature="0"
     id="path387"
     d="m 362.1,279.2 c 0.1,-0.4 0.1,-0.9 0.2,-1.3 -0.3,0 -0.3,-0.4 -0.4,-0.5 -0.2,-0.3 -0.6,-0.3 -0.8,0 -0.1,0.2 -0.1,0.4 -0.2,0.6 -0.2,0.2 -0.5,0.1 -0.8,0.2 -0.3,0.1 -0.4,0.4 -0.6,0.6 -0.3,0.2 -0.5,0.2 -0.9,0.2 -0.2,0 -0.8,0.2 -0.6,0.5 0.2,0.4 0.8,0.4 1.1,0.7 0.1,0.1 0.2,0.2 0.3,0.2 0.4,0.3 0.9,0.2 1.2,-0.1 0.1,-0.1 0.2,-0.3 0.4,-0.4 0.1,0 0.2,0 0.2,0 0.3,0 0.4,-0.5 0.9,-0.7 0.1,0.1 0.1,0.1 0.2,0 -0.3,0.1 -0.2,0 -0.2,0 z" /><path
     style="fill:#4ebf7a"
     inkscape:connector-curvature="0"
     id="path389"
     d="m 377.9,267.1 c 0.2,0.2 0.4,0.4 0.5,0.6 0.3,-0.2 0.4,-0.5 0.4,-0.9 0,-0.5 -0.1,-1.2 -0.4,-1.5 -0.4,-0.4 -1,-0.4 -1.5,-0.4 -0.1,0 -0.2,0 -0.3,0.1 0,0 0,0.1 -0.1,0.1 -0.4,0.3 -1.6,0.7 -1.7,1.2 0,0.1 0,0.1 0,0.2 0,0.1 0.1,0.1 0.1,0.2 0.3,0.4 1,1.2 1.2,1.6 0.4,-0.2 1.1,-0.5 1.2,-0.5 0.3,-0.4 0.4,-0.6 0.6,-0.7 z" /><path
     style="fill:#4ebf7a"
     inkscape:connector-curvature="0"
     id="path391"
     d="m 411.2,271.9 c -2.1,1.4 -3.6,3.8 -3.7,6.4 0.5,0.4 1.2,0.8 1.9,0.9 0.3,0.1 0.6,0.3 0.9,0.2 0.2,-0.1 0.9,-0.9 1,-1 0.5,-0.8 0.8,-1.8 1.1,-2.8 -0.1,0.7 -1.2,1.9 -1.3,2.3 -0.1,0.3 0.3,0.4 0.5,0.5 0.3,0.2 1,0 1.2,-0.3 0.2,-0.3 0.3,-0.4 0.4,-0.7 0.4,-1.4 0.8,-2.9 1.9,-3.8" /><path
     style="fill:#4ebf7a"
     inkscape:connector-curvature="0"
     id="path393"
     d="m 453.1,262 c 0.3,-0.1 0.5,-0.2 0.8,-0.3 0.3,-0.1 0.6,-0.1 0.9,0 0.2,-0.4 1.8,-0.2 2.2,-0.4 0.3,-0.2 0.6,-0.4 0.8,-0.6 0.1,-0.2 0.1,-0.4 0.1,-0.5 0,-0.3 0,-1.4 -0.1,-1.7 0,-0.1 0,-0.2 -0.1,-0.3 -0.1,-0.2 -0.4,-0.1 -0.5,-0.2 -2.4,-0.6 -2.9,0.2 -3.7,0.1 0,-0.4 0.1,-1 -0.1,-1.4 -0.2,-0.4 -0.6,-0.8 -1.1,-0.7 -0.1,0 -0.1,0 -0.2,0.1 -0.1,0.1 -0.1,0.3 -0.1,0.4 0,0.3 0,0.6 0.1,0.9 0.1,0.2 0.1,0.3 0.2,0.4 0.1,0.4 -0.3,0.7 -0.4,1.1 -0.2,0.4 -0.2,0.8 -0.2,1.2 0,0.7 0,1.3 0.1,2 0.3,0 0.9,0 1.3,-0.1 z" /><rect
     style="opacity:0.23399999;fill:#000000;fill-opacity:1;stroke:none;stroke-width:1;stroke-linecap:round;stroke-linejoin:miter;stroke-miterlimit:4;stroke-dasharray:none;stroke-dashoffset:0;stroke-opacity:1;filter:url(#filter4760)"
     id="rect4722"
     width="592.84552"
     height="18.929756"
     x="-38.320885"
     y="7.6590223" /></svg>